<svg width="45" height="45" viewBox="0 0 45 45" fill="none" xmlns="http://www.w3.org/2000/svg">
<g clip-path="url(#clip0_3_30)">
<path d="M36.6621 0H8.33808C4.52126 0 1.416 3.10517 1.416 6.92199V30.52C1.416 34.3367 4.52126 37.4419 8.33799 37.4419H13.0299L21.3314 44.5673C22.0037 45.1443 22.9965 45.1442 23.6686 44.5673L31.9701 37.4419H36.6619C40.4786 37.4419 43.5839 34.3367 43.5839 30.52V6.92199C43.5841 3.10517 40.4788 0 36.6621 0ZM22.5001 40.8412L18.5397 37.4419H26.4605L22.5001 40.8412ZM39.9956 30.5198C39.9956 32.3578 38.5001 33.8533 36.6621 33.8533C35.61 33.8533 10.0287 33.8533 8.33808 33.8533C6.50002 33.8533 5.00457 32.3579 5.00457 30.5198V6.92199C5.00448 5.08385 6.49994 3.58848 8.33808 3.58848H36.6621C38.5001 3.58848 39.9956 5.08385 39.9956 6.92199V30.5198Z" fill="white"/>
<path d="M34.3752 9.26761H22.4997C21.5088 9.26761 20.7054 10.0709 20.7054 11.0619C20.7054 12.0529 21.5087 12.8562 22.4997 12.8562H34.3752C35.3661 12.8562 36.1695 12.0529 36.1695 11.0619C36.1694 10.0708 35.3661 9.26761 34.3752 9.26761Z" fill="white"/>
<path d="M10.4487 12.8469C10.5739 12.8595 10.676 12.8597 10.8016 12.8469C11.7397 12.7494 12.4187 11.9697 12.4187 11.0622C12.4187 10.1596 11.7459 9.37528 10.8016 9.27631C10.6843 9.26436 10.5658 9.26436 10.4487 9.27631C9.49964 9.3737 8.83026 10.1714 8.83026 11.0622C8.83026 11.9528 9.50043 12.7505 10.4487 12.8469Z" fill="white"/>
<path d="M22.5004 24.5859H10.625C9.63411 24.5859 8.8307 25.3892 8.8307 26.3801C8.8307 27.3711 9.63402 28.1744 10.625 28.1744H22.5005C23.4914 28.1744 24.2948 27.3711 24.2948 26.3801C24.2948 25.3892 23.4913 24.5859 22.5004 24.5859Z" fill="white"/>
<path d="M16.3869 12.8469C16.5122 12.8595 16.6143 12.8597 16.7398 12.8469C17.6779 12.7494 18.357 11.9697 18.357 11.0622C18.357 10.1596 17.6841 9.37528 16.7398 9.27631C16.6225 9.26436 16.5041 9.26436 16.3869 9.27631C15.4379 9.3737 14.7685 10.1714 14.7685 11.0622C14.7684 11.9528 15.4387 12.7505 16.3869 12.8469Z" fill="white"/>
<path d="M10.4487 20.506C10.5739 20.5186 10.676 20.5188 10.8016 20.506C11.7397 20.4085 12.4187 19.6288 12.4187 18.7213C12.4187 17.8187 11.7459 17.0344 10.8016 16.9354C10.6843 16.9235 10.5658 16.9235 10.4487 16.9354C9.49964 17.0328 8.83026 17.8305 8.83026 18.7213C8.83026 19.6118 9.50043 20.4097 10.4487 20.506Z" fill="white"/>
<path d="M22.6771 20.506C23.6152 20.4085 24.2942 19.6288 24.2942 18.7213C24.2942 17.8187 23.6213 17.0344 22.6771 16.9354C22.5598 16.9235 22.4413 16.9235 22.3242 16.9354C21.3751 17.0328 20.7058 17.8305 20.7058 18.7213C20.7058 19.6119 21.376 20.4097 22.3242 20.506C22.4494 20.5186 22.5516 20.5187 22.6771 20.506Z" fill="white"/>
<path d="M34.552 16.9353C34.4348 16.9234 34.3163 16.9234 34.1991 16.9353C33.2501 17.0327 32.5807 17.8304 32.5807 18.7212C32.5807 19.6118 33.251 20.4096 34.1991 20.5059C34.3244 20.5185 34.4265 20.5187 34.552 20.5059C35.4902 20.4084 36.1692 19.6287 36.1692 18.7212C36.1693 17.8187 35.4964 17.0344 34.552 16.9353Z" fill="white"/>
<path d="M34.552 24.5945C34.4348 24.5825 34.3163 24.5825 34.1991 24.5945C33.2501 24.6919 32.5807 25.4896 32.5807 26.3803C32.5807 27.2708 33.251 28.0687 34.1991 28.165C34.3244 28.1777 34.4265 28.1779 34.552 28.165C35.4902 28.0676 36.1692 27.2879 36.1692 26.3803C36.1693 25.4779 35.4964 24.6935 34.552 24.5945Z" fill="white"/>
<path d="M28.6579 24.5945C28.5407 24.5825 28.4222 24.5825 28.305 24.5945C27.356 24.6919 26.6866 25.4896 26.6866 26.3803C26.6866 27.2708 27.3569 28.0687 28.305 28.165C28.4303 28.1777 28.5324 28.1779 28.6579 28.165C29.5961 28.0676 30.2751 27.2879 30.2751 26.3803C30.2752 25.4779 29.6023 24.6935 28.6579 24.5945Z" fill="white"/>
</g>
<defs>
<clipPath id="clip0_3_30">
<rect width="45" height="45" fill="white"/>
</clipPath>
</defs>
</svg>
