<svg width="22" height="26" viewBox="0 0 22 26" fill="none" xmlns="http://www.w3.org/2000/svg">
<path d="M19.3465 3.61726H17.7765C17.7438 3.61726 17.7147 3.6285 17.6843 3.63586V1.9872C17.6843 0.891369 16.7725 0 15.6516 0H2.03274C0.911784 0 0 0.891369 0 1.9872V20.5201C0 21.6159 0.911784 22.5073 2.03274 22.5073H4.42108V23.4046C4.42108 24.4612 5.29793 25.3207 6.37612 25.3207H19.3465C20.4247 25.3207 21.3016 24.4612 21.3016 23.4046V5.53341C21.3016 4.47682 20.4247 3.61726 19.3465 3.61726ZM0.803814 20.5201V1.9872C0.803814 1.33488 1.35529 0.803854 2.03274 0.803854H15.6516C16.329 0.803854 16.8805 1.33488 16.8805 1.9872V20.5201C16.8805 21.1724 16.329 21.7035 15.6516 21.7035H2.03274C1.35529 21.7035 0.803814 21.1724 0.803814 20.5201ZM20.4977 23.4046C20.4977 24.0181 19.9812 24.5169 19.3465 24.5169H6.37611C5.74143 24.5169 5.22489 24.0181 5.22489 23.4046V22.5073H15.6516C16.7725 22.5073 17.6843 21.6159 17.6843 20.5201V4.40248C17.7147 4.40984 17.7438 4.42108 17.7765 4.42108H19.3465C19.9812 4.42108 20.4977 4.91994 20.4977 5.53341V23.4046Z" fill="white"/>
<path d="M13.2632 5.22493H4.42109C4.19894 5.22493 4.01917 5.40467 4.01917 5.62682C4.01917 5.84901 4.19894 6.02874 4.42109 6.02874H13.2632C13.4854 6.02874 13.6652 5.84901 13.6652 5.62682C13.6652 5.40467 13.4854 5.22493 13.2632 5.22493Z" fill="white"/>
<path d="M13.2632 8.44028H4.42109C4.19894 8.44028 4.01917 8.62001 4.01917 8.84216C4.01917 9.06431 4.19894 9.24409 4.42109 9.24409H13.2632C13.4854 9.24409 13.6652 9.06431 13.6652 8.84216C13.6652 8.62001 13.4854 8.44028 13.2632 8.44028Z" fill="white"/>
<path d="M13.2632 11.6556H4.42109C4.19894 11.6556 4.01917 11.8353 4.01917 12.0575C4.01917 12.2796 4.19894 12.4594 4.42109 12.4594H13.2632C13.4854 12.4594 13.6652 12.2796 13.6652 12.0575C13.6652 11.8353 13.4854 11.6556 13.2632 11.6556Z" fill="white"/>
<path d="M9.2441 14.8709H4.42109C4.19894 14.8709 4.01917 15.0507 4.01917 15.2728C4.01917 15.495 4.19894 15.6748 4.42109 15.6748H9.2441C9.46625 15.6748 9.64598 15.495 9.64598 15.2728C9.64598 15.0507 9.46625 14.8709 9.2441 14.8709Z" fill="white"/>
</svg>
