<svg width="57" height="57" viewBox="0 0 57 57" fill="none" xmlns="http://www.w3.org/2000/svg">
<path d="M48.0938 32.9531H38.2969V24.0469H48.0938C48.8024 24.0469 49.482 23.7654 49.9831 23.2643C50.4841 22.7632 50.7656 22.0836 50.7656 21.375C50.7656 20.6664 50.4841 19.9868 49.9831 19.4857C49.482 18.9846 48.8024 18.7031 48.0938 18.7031H38.2969V8.90625C38.2969 8.19762 38.0154 7.51802 37.5143 7.01695C37.0132 6.51588 36.3336 6.23438 35.625 6.23438C34.9164 6.23438 34.2368 6.51588 33.7357 7.01695C33.2346 7.51802 32.9531 8.19762 32.9531 8.90625V18.7031H24.0469V8.90625C24.0469 8.19762 23.7654 7.51802 23.2643 7.01695C22.7632 6.51588 22.0836 6.23438 21.375 6.23438C20.6664 6.23438 19.9868 6.51588 19.4857 7.01695C18.9846 7.51802 18.7031 8.19762 18.7031 8.90625V18.7031H8.90625C8.19762 18.7031 7.51802 18.9846 7.01695 19.4857C6.51588 19.9868 6.23438 20.6664 6.23438 21.375C6.23438 22.0836 6.51588 22.7632 7.01695 23.2643C7.51802 23.7654 8.19762 24.0469 8.90625 24.0469H18.7031V32.9531H8.90625C8.19762 32.9531 7.51802 33.2346 7.01695 33.7357C6.51588 34.2368 6.23438 34.9164 6.23438 35.625C6.23438 36.3336 6.51588 37.0132 7.01695 37.5143C7.51802 38.0154 8.19762 38.2969 8.90625 38.2969H18.7031V48.0938C18.7031 48.8024 18.9846 49.482 19.4857 49.9831C19.9868 50.4841 20.6664 50.7656 21.375 50.7656C22.0836 50.7656 22.7632 50.4841 23.2643 49.9831C23.7654 49.482 24.0469 48.8024 24.0469 48.0938V38.2969H32.9531V48.0938C32.9531 48.8024 33.2346 49.482 33.7357 49.9831C34.2368 50.4841 34.9164 50.7656 35.625 50.7656C36.3336 50.7656 37.0132 50.4841 37.5143 49.9831C38.0154 49.482 38.2969 48.8024 38.2969 48.0938V38.2969H48.0938C48.8024 38.2969 49.482 38.0154 49.9831 37.5143C50.4841 37.0132 50.7656 36.3336 50.7656 35.625C50.7656 34.9164 50.4841 34.2368 49.9831 33.7357C49.482 33.2346 48.8024 32.9531 48.0938 32.9531ZM24.0469 32.9531V24.0469H32.9531V32.9531H24.0469Z" fill="white"/>
</svg>
